<svg width="400" height="400" viewBox="0 0 400 400" fill="none" xmlns="http://www.w3.org/2000/svg">
<circle cx="200.357" cy="186.786" r="125.357" fill="#ECF6EF"/>
<circle cx="82.8571" cy="102.143" r="7.85714" fill="#ECF6EF"/>
<circle cx="243.928" cy="46.7859" r="14.6429" fill="#ECF6EF"/>
<circle cx="94.6415" cy="286.786" r="13.9286" fill="#ECF6EF"/>
<circle cx="334.641" cy="253.929" r="13.9286" fill="#ECF6EF"/>
<circle cx="307.501" cy="269.643" r="6.78571" fill="#ECF6EF"/>
<path d="M207.517 67.5266C207.103 67.4386 207.103 66.8475 207.517 66.7595L213.778 65.428C213.929 65.3959 214.047 65.2783 214.08 65.1276L215.428 58.9105C215.517 58.4984 216.105 58.4984 216.194 58.9105L217.542 65.1276C217.575 65.2783 217.693 65.3959 217.844 65.428L224.105 66.7595C224.519 66.8475 224.519 67.4386 224.105 67.5266L217.844 68.8581C217.693 68.8902 217.575 69.0078 217.542 69.1586L216.194 75.3757C216.105 75.7877 215.517 75.7877 215.428 75.3757L214.08 69.1586C214.047 69.0078 213.929 68.8902 213.778 68.8581L207.517 67.5266Z" fill="#8ECEA3"/>
<path d="M64.4447 195.444C64.6045 194.689 65.6824 194.689 65.8423 195.444L68.23 206.725C68.2882 207 68.5022 207.215 68.7767 207.275L79.9407 209.707C80.6903 209.87 80.6903 210.939 79.9407 211.103L68.7767 213.535C68.5022 213.595 68.2882 213.81 68.23 214.085L65.8423 225.365C65.6824 226.12 64.6045 226.12 64.4447 225.365L62.0569 214.085C61.9987 213.81 61.7847 213.595 61.5102 213.535L50.3462 211.103C49.5966 210.939 49.5966 209.87 50.3462 209.707L61.5102 207.275C61.7847 207.215 61.9987 207 62.0569 206.725L64.4447 195.444Z" fill="#8ECEA3"/>
<path d="M312.39 105.444C312.549 104.689 313.627 104.689 313.787 105.444L315.18 112.025C315.238 112.3 315.452 112.515 315.727 112.575L322.258 113.998C323.008 114.161 323.008 115.231 322.258 115.394L315.727 116.817C315.452 116.877 315.238 117.092 315.18 117.367L313.787 123.947C313.627 124.703 312.549 124.703 312.39 123.947L310.997 117.367C310.938 117.092 310.724 116.877 310.45 116.817L303.919 115.394C303.169 115.231 303.169 114.161 303.919 113.998L310.45 112.575C310.724 112.515 310.938 112.3 310.997 112.025L312.39 105.444Z" fill="#8ECEA3"/>
<path d="M341.184 210.951L343.371 221.285L353.558 223.504L343.371 225.723L341.184 236.056L338.997 225.723L328.811 223.504L338.997 221.285L341.184 210.951Z" fill="white"/>
<path d="M271.429 130L102.5 194.643L138.571 295L160.357 304.643L187.5 310.357L215 309.286L231.071 306.429L245.357 302.143L268.929 290L288.929 274.286L290.473 272.29C299.189 261.023 306.917 249.024 313.571 236.429L271.429 130Z" fill="#ECF6EF"/>
<path d="M115.357 166.072L97.5 156.072L252.5 97.5002L244.286 117.857L250.357 136.786L122.143 185.715L115.357 166.072Z" fill="#BDE4CB"/>
<path d="M137.857 294.643V294.643C153.487 302.634 170.409 307.795 187.838 309.887L188.273 309.939L200.7 309.939C210.008 309.939 219.29 308.948 228.388 306.984L231.469 306.319C241.197 304.219 250.589 300.789 259.382 296.126V296.126C266.242 292.488 272.691 288.124 278.619 283.108L280.543 281.48C285.687 277.127 290.461 272.353 294.814 267.209V267.209C300.909 260.006 306.144 252.118 310.414 243.703L314.286 236.072" stroke="#8ECEA3" stroke-width="2.85714"/>
<path d="M101.131 193.153L138.573 295.334" stroke="#8ECEA3" stroke-width="2.85714"/>
<path d="M272.918 129.939L313.994 237.266" stroke="#8ECEA3" stroke-width="2.85714"/>
<path d="M94.7029 156.368L254.698 96.2474" stroke="#8ECEA3" stroke-width="2.85714"/>
<path d="M100.302 194.994L270.665 129.294L245.55 117.63C244.829 117.295 244.52 116.436 244.863 115.719L253.609 97.4175" stroke="#8ECEA3" stroke-width="2.85714"/>
<path d="M96.1368 155.874L114.146 165.529C114.83 165.896 115.096 166.743 114.744 167.436L101.13 194.225" stroke="#8ECEA3" stroke-width="2.85714"/>
<path d="M95.416 154.582L107.02 183.588" stroke="#8ECEA3" stroke-width="2.85714"/>
<path d="M115.002 167.143L122.145 187.143" stroke="#8ECEA3" stroke-width="2.85714"/>
<path d="M245.002 117.143L252.145 137.857" stroke="#8ECEA3" stroke-width="2.85714"/>
<path d="M253.734 97.7517L263.987 126.01" stroke="#8ECEA3" stroke-width="2.85714"/>
<circle cx="168.215" cy="185.357" r="7.5" fill="#BDE4CB"/>
<circle cx="157.5" cy="146.786" r="5.35714" fill="#ECF6EF"/>
<circle cx="215.357" cy="167.5" r="7.5" fill="#BDE4CB"/>
<circle cx="190.357" cy="134.643" r="5.35714" fill="#ECF6EF"/>
</svg>
