<svg width="24" height="24" viewBox="0 0 24 24" fill="none" xmlns="http://www.w3.org/2000/svg">
<path d="M6.31818 7.42094L7.76909 14.8393C7.84807 15.2464 8.06438 15.612 8.38015 15.8723C8.69593 16.1325 9.09106 16.2708 9.49636 16.2628H17.8909C18.2962 16.2708 18.6913 16.1325 19.0071 15.8723C19.3229 15.612 19.5392 15.2464 19.6182 14.8393L21 7.42094H6.31818Z" fill="#009142"/>
<path d="M2 3H5.45455L7.76909 14.8393M7.76909 14.8393C7.84807 15.2464 8.06438 15.612 8.38015 15.8723C8.69593 16.1325 9.09106 16.2708 9.49636 16.2628H17.8909C18.2962 16.2708 18.6913 16.1325 19.0071 15.8723C19.3229 15.612 19.5392 15.2464 19.6182 14.8393L21 7.42094H6.31818L7.76909 14.8393ZM9.6 20.0526C9.6 20.5758 9.17467 21 8.65 21C8.12533 21 7.7 20.5758 7.7 20.0526C7.7 19.5294 8.12533 19.1053 8.65 19.1053C9.17467 19.1053 9.6 19.5294 9.6 20.0526ZM19.1 20.0526C19.1 20.5758 18.6747 21 18.15 21C17.6253 21 17.2 20.5758 17.2 20.0526C17.2 19.5294 17.6253 19.1053 18.15 19.1053C18.6747 19.1053 19.1 19.5294 19.1 20.0526Z" stroke="#009142" stroke-width="2" stroke-linecap="round" stroke-linejoin="round"/>
</svg>
