<svg width="32" height="32" viewBox="0 0 32 32" fill="none" xmlns="http://www.w3.org/2000/svg">
<path d="M16.0013 2.66663C23.3653 2.66663 29.3347 8.63596 29.3347 16C29.3347 23.364 23.3653 29.3333 16.0013 29.3333C13.645 29.3374 11.3301 28.7138 9.29467 27.5266L2.67334 29.3333L4.476 22.7093C3.28795 20.6732 2.66388 18.3573 2.668 16C2.668 8.63596 8.63734 2.66663 16.0013 2.66663ZM11.4573 9.73329L11.1907 9.74396C11.0183 9.75584 10.8498 9.80112 10.6947 9.87729C10.5501 9.95931 10.4181 10.0617 10.3027 10.1813C10.1427 10.332 10.052 10.4626 9.95467 10.5893C9.4615 11.2305 9.19597 12.0177 9.2 12.8266C9.20267 13.48 9.37334 14.116 9.64 14.7106C10.1853 15.9133 11.0827 17.1866 12.2667 18.3666C12.552 18.6506 12.832 18.936 13.1333 19.2013C14.6046 20.4965 16.3577 21.4306 18.2533 21.9293L19.0107 22.0453C19.2573 22.0586 19.504 22.04 19.752 22.028C20.1403 22.0075 20.5193 21.9024 20.8627 21.72C21.0371 21.6298 21.2075 21.5319 21.3733 21.4266C21.3733 21.4266 21.4298 21.3884 21.54 21.3066C21.72 21.1733 21.8307 21.0786 21.98 20.9226C22.092 20.8071 22.1853 20.6728 22.26 20.52C22.364 20.3026 22.468 19.888 22.5107 19.5426C22.5427 19.2786 22.5333 19.1346 22.5293 19.0453C22.524 18.9026 22.4053 18.7546 22.276 18.692L21.5 18.344C21.5 18.344 20.34 17.8386 19.6307 17.516C19.5564 17.4836 19.4769 17.4651 19.396 17.4613C19.3048 17.4517 19.2125 17.4619 19.1256 17.4911C19.0386 17.5204 18.959 17.5679 18.892 17.6306C18.8853 17.628 18.796 17.704 17.832 18.872C17.7767 18.9463 17.7005 19.0025 17.6131 19.0334C17.5257 19.0642 17.4311 19.0684 17.3413 19.0453C17.2544 19.0221 17.1693 18.9927 17.0867 18.9573C16.9213 18.888 16.864 18.8613 16.7507 18.8133C15.9852 18.4798 15.2766 18.0286 14.6507 17.476C14.4827 17.3293 14.3267 17.1693 14.1667 17.0146C13.6422 16.5122 13.185 15.9439 12.8067 15.324L12.728 15.1973C12.6724 15.1117 12.6267 15.02 12.592 14.924C12.5413 14.728 12.6733 14.5706 12.6733 14.5706C12.6733 14.5706 12.9973 14.216 13.148 14.024C13.2947 13.8373 13.4187 13.656 13.4987 13.5266C13.656 13.2733 13.7053 13.0133 13.6227 12.812C13.2493 11.9 12.8636 10.9928 12.4653 10.0906C12.3867 9.91196 12.1533 9.78396 11.9413 9.75863C11.8693 9.74974 11.7973 9.74263 11.7253 9.73729C11.5463 9.72702 11.3668 9.72881 11.188 9.74263L11.4573 9.73329Z" fill="white"/>
</svg>
