<svg width="21" height="20" viewBox="0 0 21 20" fill="none" xmlns="http://www.w3.org/2000/svg">
<path d="M5.31818 5.42094L6.76909 12.8393C6.84807 13.2464 7.06438 13.612 7.38015 13.8723C7.69593 14.1325 8.09106 14.2708 8.49636 14.2628H16.8909C17.2962 14.2708 17.6913 14.1325 18.0071 13.8723C18.3229 13.612 18.5392 13.2464 18.6182 12.8393L20 5.42094H5.31818Z" fill="#7F7F7F"/>
<path d="M1 1H4.45455L6.76909 12.8393M6.76909 12.8393C6.84807 13.2464 7.06438 13.612 7.38015 13.8723C7.69593 14.1325 8.09106 14.2708 8.49636 14.2628H16.8909C17.2962 14.2708 17.6913 14.1325 18.0071 13.8723C18.3229 13.612 18.5392 13.2464 18.6182 12.8393L20 5.42094H5.31818L6.76909 12.8393ZM8.6 18.0526C8.6 18.5758 8.17467 19 7.65 19C7.12533 19 6.7 18.5758 6.7 18.0526C6.7 17.5294 7.12533 17.1053 7.65 17.1053C8.17467 17.1053 8.6 17.5294 8.6 18.0526ZM18.1 18.0526C18.1 18.5758 17.6747 19 17.15 19C16.6253 19 16.2 18.5758 16.2 18.0526C16.2 17.5294 16.6253 17.1053 17.15 17.1053C17.6747 17.1053 18.1 17.5294 18.1 18.0526Z" stroke="#7F7F7F" stroke-width="2" stroke-linecap="round" stroke-linejoin="round"/>
</svg>
